<svg width="256" height="58" viewBox="0 0 256 58" fill="none" xmlns="http://www.w3.org/2000/svg">
<path d="M1.85419 35.587V15.8881H8.55916C10.894 15.8881 12.717 16.3404 14.0218 17.2389C15.3328 18.1436 15.9821 19.4883 15.9821 21.2853C15.9821 22.1962 15.7386 23.0079 15.2516 23.7267C14.7647 24.4455 14.0592 24.9846 13.1353 25.344C14.3277 25.5981 15.2204 26.1372 15.8135 26.9675C16.4066 27.7979 16.7063 28.7584 16.7063 29.849C16.7063 31.7327 16.082 33.1579 14.8271 34.1308C13.5723 35.0975 11.7993 35.587 9.50185 35.587H1.85419ZM5.83097 24.1419H8.69026C9.75157 24.1419 10.5694 23.925 11.1438 23.4913C11.7181 23.0575 11.999 22.4255 11.999 21.5951C11.999 20.6842 11.7119 20.015 11.1313 19.5812C10.5569 19.1475 9.69538 18.9306 8.54667 18.9306H5.83097V24.1419ZM5.83097 26.8746V32.5445H9.4956C10.5507 32.5445 11.356 32.3152 11.9054 31.8628C12.461 31.4105 12.7357 30.7351 12.7357 29.8428C12.7357 28.8823 12.4985 28.1449 12.0303 27.6368C11.5558 27.1287 10.8129 26.8746 9.79527 26.8746H5.83097Z" fill="#009FC2"/>
<path d="M25.9584 35.8658C23.8296 35.8658 22.1315 35.1904 20.8641 33.8396C19.5906 32.4887 18.9538 30.7722 18.9538 28.684V28.1449C18.9538 25.9699 19.5531 24.1791 20.758 22.7725C21.9629 21.3658 23.5799 20.6656 25.6026 20.678C27.5941 20.678 29.1361 21.2729 30.2349 22.4626C31.3336 23.6524 31.883 25.2635 31.883 27.2898V29.44H23.0804L23.0554 29.5205C23.1304 30.481 23.455 31.2742 24.0293 31.8938C24.6037 32.5135 25.3903 32.8233 26.383 32.8233C27.2632 32.8233 27.9936 32.7366 28.5742 32.5569C29.1548 32.3834 29.7916 32.1045 30.4846 31.7265L31.5584 34.168C30.9591 34.6575 30.1724 35.0603 29.1985 35.3825C28.2309 35.7109 27.1508 35.8658 25.9584 35.8658ZM25.6088 23.7205C24.8721 23.7205 24.2916 23.9994 23.867 24.5571C23.4425 25.1148 23.1741 25.8522 23.0742 26.7631L23.1179 26.8312H27.9936V26.478C27.9936 25.6415 27.7939 24.9722 27.4006 24.4703C27.001 23.9746 26.4079 23.7205 25.6088 23.7205Z" fill="#009FC2"/>
<path d="M38.9313 17.3629V20.9445H41.4097V23.7206H38.9313V31.1751C38.9313 31.7452 39.0499 32.148 39.2871 32.3896C39.5244 32.6313 39.8428 32.7552 40.2423 32.7552C40.4483 32.7552 40.6294 32.7428 40.7792 32.7242C40.929 32.6995 41.1038 32.6623 41.3036 32.6065L41.647 35.4631C41.2474 35.5995 40.8541 35.6986 40.4733 35.7668C40.0925 35.8349 39.6804 35.8659 39.2309 35.8659C37.8575 35.8659 36.8024 35.4941 36.0657 34.7443C35.3228 33.9945 34.9545 32.811 34.9545 31.1875V23.7206H32.8007V20.9445H34.9545V17.3629H38.9313Z" fill="#009FC2"/>
<path d="M47.8338 22.8035C48.2958 22.1342 48.8639 21.6137 49.5381 21.2419C50.2124 20.8701 50.9553 20.678 51.7731 20.678C53.3089 20.678 54.5138 21.1861 55.3941 22.2024C56.2681 23.2186 56.7113 24.7864 56.7113 26.9056V35.587H52.7346V26.856C52.7346 25.7158 52.5348 24.9103 52.129 24.4332C51.7232 23.956 51.1239 23.7205 50.3248 23.7205C49.7816 23.7205 49.3009 23.8197 48.8826 24.0118C48.4644 24.2039 48.121 24.4765 47.8463 24.8297V35.5808H43.8695V14.4814H47.8463V22.8035H47.8338Z" fill="#009FC2"/>
<path d="M66.2319 35.8658C64.1031 35.8658 62.405 35.1904 61.1376 33.8396C59.8641 32.4887 59.2273 30.7722 59.2273 28.684V28.1449C59.2273 25.9699 59.8266 24.1791 61.0315 22.7725C62.2364 21.3658 63.8533 20.6656 65.8761 20.678C67.8676 20.678 69.4096 21.2729 70.5084 22.4626C71.6071 23.6524 72.1565 25.2635 72.1565 27.2898V29.44H63.3539L63.3289 29.5205C63.4039 30.481 63.7285 31.2742 64.3028 31.8938C64.8772 32.5135 65.6638 32.8233 66.6564 32.8233C67.5367 32.8233 68.2671 32.7366 68.8477 32.5569C69.4283 32.3834 70.0651 32.1045 70.7581 31.7265L71.8381 34.168C71.2388 34.6575 70.4522 35.0603 69.4783 35.3825C68.5044 35.7109 67.4181 35.8658 66.2319 35.8658ZM65.8761 23.7205C65.1394 23.7205 64.5588 23.9994 64.1343 24.5571C63.7098 25.1148 63.4413 25.8522 63.3414 26.7631L63.3851 26.8312H68.2609V26.478C68.2609 25.6415 68.0611 24.9722 67.6678 24.4703C67.2745 23.9746 66.6752 23.7205 65.8761 23.7205Z" fill="#009FC2"/>
<path d="M78.6617 35.587H74.6849V14.4814H78.6617V35.587Z" fill="#009FC2"/>
<path d="M100.506 26.8746H91.4598V35.587H88.7753V15.8881H101.898V17.9825H91.4598V24.774H100.506V26.8746Z" fill="#009FC2"/>
<path d="M113.591 33.4182C113.129 34.2052 112.53 34.8062 111.806 35.2276C111.075 35.649 110.239 35.8659 109.284 35.8659C107.673 35.8659 106.424 35.3577 105.525 34.3353C104.626 33.3191 104.177 31.7265 104.177 29.5763V20.9507H106.861V29.6073C106.861 31.1688 107.092 32.2409 107.554 32.8295C108.016 33.4182 108.74 33.7094 109.721 33.7094C110.676 33.7094 111.462 33.5174 112.087 33.1332C112.711 32.749 113.179 32.2037 113.498 31.5035V20.9507H116.182V35.587H113.772L113.591 33.4182Z" fill="#009FC2"/>
<path d="M122.487 20.9506L122.681 23.1256C123.174 22.3511 123.786 21.75 124.529 21.3224C125.272 20.8949 126.115 20.678 127.057 20.678C128.649 20.678 129.879 21.1427 130.753 22.066C131.627 22.9893 132.064 24.4207 132.064 26.3479V35.587H129.38V26.3974C129.38 25.1085 129.124 24.1914 128.612 23.6523C128.1 23.1132 127.313 22.8406 126.258 22.8406C125.484 22.8406 124.804 23.0265 124.211 23.3921C123.617 23.7639 123.143 24.2658 122.787 24.9102V35.5808H120.103V20.9506H122.487Z" fill="#009FC2"/>
<path d="M142.072 35.8658C140.018 35.8658 138.388 35.1842 137.171 33.8333C135.954 32.4825 135.354 30.7165 135.354 28.5539V27.959C135.354 25.8769 135.979 24.1419 137.227 22.7601C138.476 21.3782 139.955 20.6842 141.66 20.6842C143.651 20.6842 145.156 21.2791 146.173 22.4688C147.191 23.6586 147.703 25.2449 147.703 27.2278V28.8947H138.139L138.095 28.9628C138.12 30.3633 138.482 31.5158 139.169 32.4205C139.862 33.3252 140.829 33.7776 142.072 33.7776C142.983 33.7776 143.776 33.6474 144.463 33.3934C145.149 33.1393 145.743 32.7799 146.242 32.3338L147.291 34.0688C146.766 34.5831 146.067 35.0169 145.206 35.3639C144.344 35.6985 143.295 35.8658 142.072 35.8658ZM141.66 22.7725C140.761 22.7725 139.993 23.1504 139.356 23.9002C138.719 24.65 138.332 25.5919 138.182 26.7259L138.207 26.794H145.006V26.4408C145.006 25.3998 144.725 24.5261 144.163 23.8259C143.607 23.1257 142.771 22.7725 141.66 22.7725Z" fill="#009FC2"/>
<path d="M157.692 23.3053L156.312 23.2248C155.607 23.2248 155.007 23.3921 154.52 23.7267C154.033 24.0613 153.659 24.5323 153.397 25.1333V35.587H150.712V20.9506H153.109L153.365 23.0884C153.784 22.3325 154.302 21.7376 154.914 21.3162C155.525 20.8949 156.231 20.678 157.03 20.678C157.23 20.678 157.423 20.6966 157.604 20.7276C157.785 20.7585 157.935 20.7957 158.054 20.8267L157.692 23.3053Z" fill="#009FC2"/>
<path d="M169.341 35.587C169.247 35.1471 169.179 34.7567 169.129 34.4159C169.079 34.0751 169.048 33.7343 169.041 33.3935C168.542 34.0999 167.893 34.6823 167.087 35.1595C166.282 35.6304 165.421 35.8721 164.49 35.8721C162.955 35.8721 161.787 35.4817 160.982 34.7009C160.176 33.9202 159.777 32.8482 159.777 31.4725C159.777 30.0721 160.345 28.9815 161.487 28.1945C162.63 27.4076 164.172 27.011 166.126 27.011H169.041V25.561C169.041 24.7058 168.779 24.0242 168.249 23.5223C167.724 23.0204 166.975 22.7725 166.014 22.7725C165.152 22.7725 164.447 22.9894 163.91 23.4294C163.367 23.8693 163.098 24.3898 163.098 25.0033H160.539L160.514 24.9227C160.457 23.8569 160.963 22.8841 162.031 21.9979C163.098 21.1118 164.478 20.6719 166.17 20.6719C167.843 20.6719 169.185 21.0932 170.203 21.936C171.22 22.7787 171.726 23.9932 171.726 25.5796V32.6251C171.726 33.1456 171.751 33.6537 171.807 34.1432C171.863 34.6328 171.963 35.1099 172.107 35.5747H169.341V35.587ZM164.884 33.6227C165.858 33.6227 166.732 33.3749 167.512 32.8791C168.292 32.3834 168.804 31.8195 169.035 31.1813V28.808H166.026C164.946 28.808 164.078 29.0806 163.429 29.6197C162.78 30.1588 162.455 30.7909 162.455 31.5221C162.455 32.1665 162.661 32.6808 163.067 33.0588C163.473 33.4368 164.085 33.6227 164.884 33.6227Z" fill="#009FC2"/>
<path d="M178.525 35.587H175.84V14.4814H178.525V35.587Z" fill="#009FC2"/>
<path d="M191.229 31.6893C191.229 31.1006 191.004 30.6235 190.555 30.2393C190.105 29.8613 189.256 29.5329 188.001 29.254C186.21 28.8699 184.861 28.3432 183.962 27.6801C183.057 27.0171 182.607 26.1186 182.607 24.9722C182.607 23.7825 183.113 22.7724 184.131 21.9359C185.148 21.0993 186.472 20.678 188.107 20.678C189.824 20.678 191.192 21.1179 192.203 21.9917C193.214 22.8654 193.701 23.9312 193.657 25.1829L193.633 25.2635H191.073C191.073 24.6252 190.804 24.0489 190.261 23.5408C189.718 23.0327 189.006 22.7786 188.114 22.7786C187.159 22.7786 186.453 22.9893 185.985 23.3983C185.523 23.8134 185.292 24.3154 185.292 24.8979C185.292 25.4741 185.498 25.9327 185.904 26.2611C186.316 26.5957 187.146 26.8932 188.395 27.1534C190.255 27.55 191.641 28.0891 192.552 28.7707C193.464 29.4523 193.913 30.3632 193.913 31.5096C193.913 32.8109 193.383 33.8581 192.328 34.6637C191.273 35.4692 189.887 35.8658 188.176 35.8658C186.297 35.8658 184.817 35.3949 183.731 34.4468C182.651 33.4987 182.139 32.3957 182.189 31.1316L182.214 31.0511H184.774C184.817 31.9929 185.173 32.6808 185.835 33.1145C186.497 33.5483 187.277 33.7652 188.164 33.7652C189.119 33.7652 189.868 33.5731 190.405 33.1889C190.954 32.8171 191.229 32.309 191.229 31.6893Z" fill="#009FC2"/>
<path d="M214.334 32.2471C214.334 32.2471 217.718 34.0317 220.159 31.3238C220.159 31.3238 217.144 29.2666 214.278 31.7948C214.278 31.7948 213.916 32.0674 214.334 32.2471Z" fill="#009FC2"/>
<path d="M240.586 10.2058C240.524 10.212 240.486 10.2182 240.486 10.2182C240.486 10.2182 240.243 10.4475 240.586 10.2058Z" fill="#4BBCD6"/>
<path d="M255.732 10.4847C252.81 8.93552 241.722 10.0819 240.586 10.2058C240.236 10.4537 240.486 10.2182 240.486 10.2182C240.486 10.2182 240.53 10.212 240.586 10.2058C240.63 10.1748 240.673 10.1439 240.73 10.1005C241.292 9.68531 246.586 8.6195 246.586 8.6195L246.448 8.19813C245.705 8.54514 243.795 8.68766 243.795 8.68766C244.794 7.5289 247.122 7.25006 247.122 7.25006C249.913 6.48788 251.742 4.96352 251.742 4.96352C253.172 5.22377 253.896 4.70946 253.896 4.70946C255.457 0.966722 246.717 6.0851 246.717 6.0851C244.22 8.55753 238.488 10.3669 238.488 10.3669C234.175 11.5753 226.695 15.5039 226.695 15.5039C225.74 14.8347 231.159 12.6287 231.159 12.6287C235.242 9.53659 237.009 2.46629 237.009 2.46629C237.995 -2.429 236.01 1.45625 236.01 1.45625C232.539 8.90454 224.604 16.359 224.604 16.359C222.706 17.2761 216.444 21.9298 216.444 21.9298C216.906 19.2714 219.959 16.3033 219.959 16.3033C223.262 11.0486 223.88 8.19813 223.88 8.19813C225.066 2.84429 223.193 5.41587 223.193 5.41587C222.494 6.10369 220.365 9.48082 220.365 9.48082C218.598 11.5195 215.477 22.5618 215.477 22.5618C214.141 24.5447 208.36 30.2704 208.36 30.2704C207.573 30.2766 209.39 27.1968 209.39 27.1968C215.333 19.1971 216.856 13.0253 216.856 13.0253C217.112 7.18189 213.985 12.4118 213.985 12.4118C209.927 19.321 207.492 31.0697 207.492 31.0697C207.211 31.6212 205.344 33.9263 205.344 33.9263C204.377 35.3082 199.982 43.4195 199.982 43.4195L199.663 44.3056C199.12 48.0236 194.75 50.5084 194.75 50.5084C195.043 51.2024 195.68 50.5394 195.68 50.5394C196.142 50.0498 198.552 48.2838 198.552 48.2838C199.27 46.9887 203.827 44.1817 203.827 44.1817V43.4877L205.525 42.3289L205.282 41.7526C201.486 45.074 200.806 45.2413 200.806 45.2413C199.794 42.6697 206.243 34.5212 206.243 34.5212C229.542 33.6165 231.303 30.8033 231.303 30.8033C215.926 25.6353 206.668 33.6847 206.668 33.6847C204.889 34.1556 211.456 27.736 211.456 27.736C211.406 27.3084 213.385 27.0729 213.385 27.0729C222.731 27.6926 231.652 24.1171 231.652 24.1171C234.293 23.5409 232.551 22.8778 232.551 22.8778C223.281 20.6842 212.649 26.8127 212.649 26.8127C212.48 26.1372 217.574 21.9731 217.574 21.9731C221.133 18.8563 225.004 18.311 225.004 18.311C226.596 18.4659 236.665 20.046 236.665 20.046C242.059 20.5293 243.839 17.8896 243.839 17.8896L244.419 17.6479L244.657 17.4496C241.036 15.7084 226.652 17.5054 226.652 17.5054C223.399 18.0693 225.428 16.7866 225.428 16.7866C225.634 16.328 228.806 15.0825 228.806 15.0825C230.51 12.5357 236.041 14.9152 236.041 14.9152C239.837 15.9377 245.836 16.3528 245.836 16.3528C250.949 15.9996 246.96 14.0477 246.96 14.0477C240.873 12.1701 232.189 13.3785 232.189 13.3785L232.92 12.9447C238.57 9.75347 243.196 11.1105 243.196 11.1105C247.859 12.8146 253.927 11.6558 253.927 11.6558C257.011 11.631 255.732 10.4847 255.732 10.4847ZM213.716 31.5159C216.669 28.6345 220.484 30.7103 220.484 30.7103L221.414 29.6817L222.581 29.5454L221.07 31.2246L222.937 32.5011L221.77 32.6374L220.621 31.8505C217.162 34.9116 213.854 32.656 213.854 32.656C212.873 32.1913 213.716 31.5159 213.716 31.5159Z" fill="#009FC2"/>
<path d="M219.766 12.9695C219.959 14.5745 218.804 16.0307 217.187 16.2228C215.564 16.4148 214.097 15.2685 213.904 13.6636C213.71 12.0586 214.865 10.5963 216.482 10.4042C218.105 10.2183 219.572 11.3646 219.766 12.9695Z" fill="#FFE512"/>
<path d="M217.949 11.16C218.336 11.5256 218.598 12.0214 218.667 12.5852C218.823 13.8989 217.88 15.1011 216.544 15.2622C216.07 15.3179 215.602 15.225 215.196 15.0329C215.708 15.5286 216.419 15.8013 217.175 15.7145C218.505 15.5534 219.454 14.3575 219.297 13.0376C219.198 12.1887 218.667 11.507 217.949 11.16Z" fill="#4BBCD6"/>
<path d="M219.104 18.0817C219.297 19.6928 218.149 21.149 216.526 21.3411C214.902 21.5332 213.435 20.3868 213.242 18.7819C213.048 17.177 214.197 15.7146 215.82 15.5225C217.437 15.3304 218.904 16.4768 219.104 18.0817Z" fill="#FFE512"/>
<path d="M217.287 16.2722C217.668 16.644 217.937 17.1335 218.005 17.6974C218.168 19.0173 217.219 20.2132 215.889 20.3744C215.408 20.4301 214.94 20.3434 214.54 20.1451C215.046 20.6346 215.758 20.9135 216.519 20.8205C217.849 20.6594 218.798 19.4635 218.636 18.1436C218.53 17.307 217.999 16.6192 217.287 16.2722Z" fill="#4BBCD6"/>
<path d="M222.188 19.9717C222.381 21.5766 221.227 23.039 219.61 23.2311C217.986 23.4232 216.519 22.2768 216.326 20.6719C216.132 19.067 217.287 17.6046 218.904 17.4125C220.521 17.2204 221.994 18.3668 222.188 19.9717Z" fill="#FFE512"/>
<path d="M220.371 18.1622C220.752 18.534 221.021 19.0236 221.089 19.5874C221.252 20.9073 220.303 22.1033 218.967 22.2644C218.492 22.3201 218.024 22.2334 217.624 22.0351C218.13 22.5308 218.842 22.8035 219.603 22.7105C220.933 22.5494 221.876 21.3535 221.72 20.0398C221.614 19.1909 221.083 18.5092 220.371 18.1622Z" fill="#4BBCD6"/>
<path d="M225.809 16.1794C226.002 17.7843 224.847 19.2467 223.231 19.4388C221.614 19.6308 220.14 18.4845 219.947 16.8796C219.753 15.2747 220.908 13.8185 222.525 13.6264C224.148 13.4343 225.615 14.5806 225.809 16.1794Z" fill="#FFE512"/>
<path d="M223.992 14.3761C224.373 14.7479 224.635 15.2312 224.704 15.8013C224.866 17.1212 223.924 18.3233 222.588 18.4782C222.107 18.534 221.645 18.4473 221.239 18.249C221.745 18.7447 222.456 19.0173 223.218 18.9244C224.548 18.7633 225.491 17.5673 225.334 16.2475C225.235 15.4047 224.704 14.7231 223.992 14.3761Z" fill="#4BBCD6"/>
<path d="M225.472 11.4203C225.665 13.0252 224.51 14.4814 222.893 14.6797C221.276 14.8718 219.803 13.7254 219.61 12.1205C219.416 10.5094 220.571 9.0532 222.188 8.8611C223.805 8.66901 225.272 9.81538 225.472 11.4203Z" fill="#FFE512"/>
<path d="M223.649 9.61096C224.03 9.98276 224.298 10.4661 224.367 11.03C224.529 12.3499 223.58 13.552 222.244 13.7069C221.763 13.7627 221.301 13.6759 220.896 13.4776C221.401 13.9672 222.113 14.2398 222.875 14.1531C224.204 13.9919 225.147 12.8022 224.991 11.4823C224.897 10.6396 224.367 9.95797 223.649 9.61096Z" fill="#4BBCD6"/>
<path d="M228.974 8.11133C229.168 9.71624 228.013 11.1786 226.396 11.3707C224.779 11.5628 223.312 10.4165 223.112 8.81154C222.918 7.20663 224.073 5.74424 225.69 5.55214C227.307 5.36005 228.781 6.50642 228.974 8.11133Z" fill="#FFE512"/>
<path d="M227.157 6.302C227.538 6.6738 227.807 7.16333 227.875 7.72722C228.038 9.04089 227.089 10.243 225.753 10.4041C225.272 10.4599 224.81 10.367 224.404 10.1749C224.91 10.6644 225.622 10.9432 226.383 10.8503C227.713 10.6892 228.662 9.49324 228.5 8.17337C228.4 7.33063 227.869 6.64901 227.157 6.302Z" fill="#4BBCD6"/>
<path d="M232.277 4.53598C232.47 6.14089 231.315 7.59709 229.692 7.79538C228.075 7.98748 226.602 6.84111 226.408 5.23619C226.215 3.62508 227.37 2.16889 228.987 1.9706C230.604 1.7785 232.077 2.92487 232.277 4.53598Z" fill="#FFE512"/>
<path d="M230.454 2.72656C230.828 3.09836 231.103 3.58789 231.172 4.15178C231.334 5.47165 230.385 6.66759 229.055 6.8287C228.575 6.88447 228.113 6.79152 227.707 6.59943C228.219 7.08896 228.924 7.36161 229.686 7.27485C231.016 7.11374 231.965 5.9178 231.802 4.60413C231.702 3.76139 231.165 3.07357 230.454 2.72656Z" fill="#4BBCD6"/>
<path d="M231.009 10.9928C231.203 12.5667 230.067 13.9981 228.481 14.1902C226.895 14.3823 225.453 13.2545 225.26 11.6806C225.066 10.1067 226.202 8.67525 227.788 8.48315C229.38 8.29726 230.822 9.41884 231.009 10.9928Z" fill="#FFE512"/>
<path d="M229.23 9.22058C229.605 9.57998 229.867 10.0633 229.936 10.6148C230.092 11.9099 229.161 13.0811 227.857 13.2422C227.388 13.2979 226.933 13.2112 226.539 13.0191C227.039 13.5024 227.738 13.7689 228.475 13.6821C229.779 13.5272 230.71 12.3499 230.554 11.061C230.454 10.2306 229.936 9.56139 229.23 9.22058Z" fill="#4BBCD6"/>
<path d="M232.514 7.51645C232.707 9.12136 231.559 10.5838 229.935 10.7758C228.319 10.9679 226.845 9.82157 226.652 8.21666C226.458 6.61175 227.613 5.14935 229.23 4.95726C230.853 4.75897 232.32 5.91153 232.514 7.51645Z" fill="#FFE512"/>
<path d="M230.697 5.70715C231.078 6.07895 231.346 6.56228 231.415 7.13237C231.577 8.45224 230.629 9.64818 229.299 9.80929C228.818 9.86506 228.356 9.77211 227.95 9.58002C228.456 10.0695 229.168 10.3484 229.929 10.2554C231.259 10.0943 232.208 8.89839 232.046 7.57852C231.946 6.73579 231.415 6.05416 230.697 5.70715Z" fill="#4BBCD6"/>
<path d="M228.181 17.462C228.375 19.0731 227.22 20.5293 225.603 20.7214C223.986 20.9135 222.519 19.7672 222.319 18.1561C222.126 16.5511 223.281 15.0949 224.898 14.9028C226.514 14.7108 227.988 15.8571 228.181 17.462Z" fill="#FFE512"/>
<path d="M226.365 15.6526C226.745 16.0244 227.014 16.5139 227.082 17.0778C227.245 18.3977 226.296 19.5936 224.966 19.7547C224.485 19.8105 224.023 19.7237 223.618 19.5254C224.13 20.0212 224.835 20.2938 225.597 20.2009C226.926 20.0398 227.875 18.8438 227.713 17.5302C227.607 16.6874 227.076 15.9996 226.365 15.6526Z" fill="#4BBCD6"/>
<path d="M230.616 15.9005C230.81 17.5054 229.655 18.9678 228.038 19.1599C226.414 19.352 224.947 18.2056 224.754 16.6007C224.56 14.9958 225.715 13.5334 227.332 13.3413C228.949 13.1492 230.422 14.2956 230.616 15.9005Z" fill="#FFE512"/>
<path d="M228.799 14.0911C229.18 14.4567 229.449 14.9462 229.517 15.5163C229.68 16.8362 228.731 18.0321 227.401 18.1932C226.92 18.249 226.458 18.156 226.052 17.9639C226.558 18.4597 227.27 18.7323 228.025 18.6456C229.355 18.4844 230.304 17.2885 230.142 15.9686C230.042 15.1259 229.511 14.4381 228.799 14.0911Z" fill="#4BBCD6"/>
<path d="M226.995 21.1366C227.189 22.7415 226.034 24.2039 224.417 24.396C222.8 24.5881 221.326 23.4417 221.133 21.8368C220.939 20.2319 222.094 18.7695 223.711 18.5774C225.328 18.3853 226.795 19.5317 226.995 21.1366Z" fill="#FFE512"/>
<path d="M225.172 19.3271C225.553 19.6989 225.821 20.1885 225.89 20.7524C226.052 22.0722 225.097 23.2682 223.774 23.4293C223.293 23.4851 222.831 23.3921 222.425 23.2C222.931 23.6957 223.636 23.9684 224.398 23.8754C225.728 23.7143 226.677 22.5184 226.514 21.1985C226.421 20.3558 225.89 19.6742 225.172 19.3271Z" fill="#4BBCD6"/>
<path d="M4.85702 56.4137C3.35246 56.4137 2.37231 55.0629 2.37231 53.2721C2.37231 51.4565 3.40241 50.1118 4.88824 50.1118C5.73104 50.1118 6.36158 50.4278 6.84854 51.0909L6.3054 51.4999C5.91209 50.9669 5.53751 50.7315 4.86951 50.7315C3.81444 50.7315 3.05904 51.7725 3.05904 53.2535C3.05904 54.7469 3.83942 55.7941 4.87575 55.7941C5.54375 55.7941 5.99949 55.4966 6.39904 54.9947L6.86727 55.4037C6.41777 56.0048 5.74977 56.4137 4.85702 56.4137Z" fill="#9D9FA2"/>
<path d="M13.1726 56.4137C12.0489 56.4137 11.1874 55.5834 11.1874 54.0342C11.1874 52.4789 12.0864 51.6423 13.2101 51.6423C14.3338 51.6423 15.1954 52.4417 15.1954 53.997C15.1954 55.5524 14.3026 56.4137 13.1726 56.4137ZM13.1914 52.2124C12.3923 52.2124 11.8554 52.8135 11.8554 54.0156C11.8554 55.2178 12.3923 55.8498 13.1914 55.8498C13.9905 55.8498 14.5336 55.224 14.5336 54.0156C14.5399 52.8135 13.9905 52.2124 13.1914 52.2124Z" fill="#9D9FA2"/>
<path d="M25.2841 56.3208V53.6438C25.2841 52.5966 24.9594 52.2124 24.2914 52.2124C23.6671 52.2124 23.2613 52.6338 23.2613 53.6438V56.3208H22.5996V53.6438C22.5996 52.5966 22.25 52.2124 21.607 52.2124C20.9764 52.2124 20.5769 52.6338 20.5769 53.6438V56.3208H19.9151V51.7415H20.5769V52.2992C20.8141 51.9088 21.2012 51.6423 21.7443 51.6423C22.3936 51.6423 22.7931 51.9893 23.0116 52.4293C23.2863 51.9955 23.6609 51.6423 24.4101 51.6423C25.3527 51.6423 25.9396 52.1938 25.9396 53.5261V56.3208H25.2841Z" fill="#9D9FA2"/>
<path d="M32.8444 56.4137C32.2638 56.4137 31.8705 56.172 31.5458 55.8002V57.6344L30.8841 58V51.7415H31.5458V52.2992C31.8705 51.9522 32.3137 51.6423 32.9318 51.6423C33.8558 51.6423 34.5862 52.3426 34.5862 53.9537C34.5862 55.5772 33.8121 56.4137 32.8444 56.4137ZM32.7632 52.2124C32.27 52.2124 31.8642 52.4727 31.5396 52.8755V55.162C31.7956 55.5462 32.2451 55.8498 32.7882 55.8498C33.5498 55.8498 33.9307 55.193 33.9307 53.9661C33.9369 52.8135 33.4937 52.2124 32.7632 52.2124Z" fill="#9D9FA2"/>
<path d="M41.8841 56.3208V55.7631C41.5595 56.1101 41.1037 56.4199 40.442 56.4199C39.724 56.4199 38.9624 56.0605 38.9624 54.9513C38.9624 53.9227 39.8177 53.4889 40.7292 53.4889C41.1974 53.4889 41.6094 53.6005 41.8779 53.7492V53.2101C41.8779 52.5285 41.5532 52.2001 40.8728 52.2001C40.392 52.2001 39.9925 52.3302 39.6179 52.5471L39.3744 52.0142C39.7802 51.7973 40.3234 51.6486 40.9227 51.6486C41.9153 51.6486 42.5396 52.0699 42.5396 53.1295V56.3208H41.8841ZM41.8841 54.2697C41.5845 54.1024 41.2598 54.0095 40.698 54.0095C40.0237 54.0095 39.6179 54.3317 39.6179 54.908C39.6179 55.5896 39.9987 55.887 40.5606 55.887C41.1599 55.887 41.6094 55.5834 41.8904 55.1992V54.2697H41.8841Z" fill="#9D9FA2"/>
<path d="M48.764 56.4137C48.1334 56.4137 47.5778 56.1782 47.1408 55.8312L47.5279 55.3541C47.8962 55.6763 48.327 55.8622 48.7827 55.8622C49.4133 55.8622 49.7129 55.602 49.7129 55.1558C49.7129 54.7778 49.4382 54.5733 48.6204 54.2201C47.6964 53.8297 47.3094 53.5509 47.3094 52.8135C47.3094 52.1133 47.9149 51.6423 48.7515 51.6423C49.382 51.6423 49.8752 51.8406 50.2311 52.1319L49.8628 52.609C49.5007 52.3302 49.201 52.2 48.714 52.2C48.2333 52.2 47.9524 52.4355 47.9524 52.7639C47.9524 53.1481 48.1896 53.303 48.97 53.6562C49.8378 54.0466 50.3497 54.3007 50.3497 55.1248C50.3435 56.0233 49.5631 56.4137 48.764 56.4137Z" fill="#9D9FA2"/>
<path d="M56.293 56.4137C55.6624 56.4137 55.1068 56.1782 54.6698 55.8312L55.0569 55.3541C55.4252 55.6763 55.856 55.8622 56.3117 55.8622C56.9422 55.8622 57.2419 55.602 57.2419 55.1558C57.2419 54.7778 56.9672 54.5733 56.1494 54.2201C55.2254 53.8297 54.8384 53.5509 54.8384 52.8135C54.8384 52.1133 55.4439 51.6423 56.2805 51.6423C56.911 51.6423 57.4042 51.8406 57.7601 52.1319L57.3917 52.609C57.0297 52.3302 56.73 52.2 56.243 52.2C55.7623 52.2 55.4814 52.4355 55.4814 52.7639C55.4814 53.1481 55.7186 53.303 56.499 53.6562C57.3668 54.0466 57.8787 54.3007 57.8787 55.1248C57.8725 56.0233 57.0921 56.4137 56.293 56.4137Z" fill="#9D9FA2"/>
<path d="M63.0167 50.9174C62.742 50.9174 62.536 50.7067 62.536 50.4526C62.536 50.1924 62.7483 49.9817 63.0167 49.9817C63.2602 49.9817 63.4725 50.1924 63.4725 50.4526C63.4787 50.7067 63.2664 50.9174 63.0167 50.9174ZM62.6796 56.3208V51.7415H63.3414V56.3208H62.6796Z" fill="#9D9FA2"/>
<path d="M70.09 56.4137C68.9663 56.4137 68.1047 55.5834 68.1047 54.0342C68.1047 52.4789 69.0037 51.6423 70.1275 51.6423C71.2512 51.6423 72.1127 52.4417 72.1127 53.997C72.1127 55.5524 71.22 56.4137 70.09 56.4137ZM70.1087 52.2124C69.3096 52.2124 68.7727 52.8135 68.7727 54.0156C68.7727 55.2178 69.3096 55.8498 70.1087 55.8498C70.9078 55.8498 71.451 55.224 71.451 54.0156C71.4572 52.8135 70.9078 52.2124 70.1087 52.2124Z" fill="#9D9FA2"/>
<path d="M79.7292 56.3208V53.6438C79.7292 52.6586 79.3796 52.2124 78.6367 52.2124C77.9937 52.2124 77.4942 52.64 77.4942 53.6438V56.3208H76.8325V51.7415H77.4942V52.2992C77.7564 51.915 78.1872 51.6423 78.7678 51.6423C79.7417 51.6423 80.3847 52.2062 80.3847 53.5261V56.3208H79.7292Z" fill="#9D9FA2"/>
<path d="M91.4535 56.4137C91.1476 56.4137 90.8917 56.1596 90.8917 55.856C90.8917 55.5524 91.1476 55.2797 91.4535 55.2797C91.7532 55.2797 92.0154 55.5524 92.0154 55.856C92.0154 56.1596 91.7532 56.4137 91.4535 56.4137Z" fill="#9D9FA2"/>
<path d="M104.807 53.9227H103.315V56.3208H102.628V50.2172H104.932C106.05 50.2172 106.892 50.7996 106.892 52.039C106.892 53.2473 106.037 53.9227 104.807 53.9227ZM104.907 50.8306H103.315V53.2969H104.82C105.762 53.2969 106.206 52.8693 106.206 52.0575C106.206 51.2768 105.75 50.8306 104.907 50.8306Z" fill="#9D9FA2"/>
<path d="M114.834 54.2511H111.756C111.818 55.2302 112.28 55.8498 113.036 55.8498C113.572 55.8498 113.891 55.6949 114.309 55.4161L114.615 55.887C114.059 56.234 113.66 56.4199 112.961 56.4199C112.118 56.4199 111.088 55.8064 111.088 54.0094C111.088 52.5532 111.893 51.6423 112.992 51.6423C114.197 51.6423 114.846 52.5842 114.846 53.8917C114.859 54.0528 114.852 54.1458 114.834 54.2511ZM112.998 52.2124C112.311 52.2124 111.837 52.7019 111.762 53.7244H114.247C114.191 52.8321 113.803 52.2124 112.998 52.2124Z" fill="#9D9FA2"/>
<path d="M122.188 56.3208V55.7631C121.863 56.1101 121.407 56.4199 120.746 56.4199C120.028 56.4199 119.266 56.0605 119.266 54.9513C119.266 53.9227 120.121 53.4889 121.033 53.4889C121.501 53.4889 121.913 53.6005 122.182 53.7492V53.2101C122.182 52.5285 121.857 52.2001 121.176 52.2001C120.696 52.2001 120.296 52.3302 119.922 52.5471L119.678 52.0142C120.084 51.7973 120.627 51.6486 121.226 51.6486C122.219 51.6486 122.843 52.0699 122.843 53.1295V56.3208H122.188ZM122.188 54.2697C121.888 54.1024 121.563 54.0095 121.002 54.0095C120.327 54.0095 119.922 54.3317 119.922 54.908C119.922 55.5896 120.302 55.887 120.864 55.887C121.464 55.887 121.913 55.5834 122.194 55.1992V54.2697H122.188Z" fill="#9D9FA2"/>
<path d="M130.591 52.6711C130.254 52.3736 129.948 52.2063 129.486 52.2063C128.768 52.2063 128.212 52.8508 128.212 53.9971C128.212 55.1249 128.693 55.8437 129.511 55.8437C129.96 55.8437 130.26 55.6578 130.572 55.3542L130.965 55.7755C130.578 56.1659 130.129 56.4138 129.48 56.4138C128.468 56.4138 127.538 55.6454 127.538 54.0467C127.538 52.355 128.556 51.6362 129.523 51.6362C130.148 51.6362 130.622 51.8655 130.984 52.1753L130.591 52.6711Z" fill="#9D9FA2"/>
<path d="M138.994 54.2511H135.916C135.978 55.2302 136.44 55.8498 137.196 55.8498C137.733 55.8498 138.051 55.6949 138.469 55.4161L138.775 55.887C138.22 56.234 137.82 56.4199 137.121 56.4199C136.278 56.4199 135.248 55.8064 135.248 54.0094C135.248 52.5532 136.053 51.6423 137.152 51.6423C138.357 51.6423 139.006 52.5842 139.006 53.8917C139.019 54.0528 139.013 54.1458 138.994 54.2511ZM137.152 52.2124C136.465 52.2124 135.991 52.7019 135.916 53.7244H138.401C138.351 52.8321 137.964 52.2124 137.152 52.2124Z" fill="#9D9FA2"/>
<path d="M149.882 56.4137C149.576 56.4137 149.32 56.1596 149.32 55.856C149.32 55.5524 149.576 55.2797 149.882 55.2797C150.181 55.2797 150.444 55.5524 150.444 55.856C150.444 56.1596 150.181 56.4137 149.882 56.4137Z" fill="#9D9FA2"/>
<path d="M164.802 56.3208V53.4394H161.743V56.3208H161.057V50.2172H161.743V52.8259H164.802V50.2172H165.489V56.3208H164.802Z" fill="#9D9FA2"/>
<path d="M172.275 56.4137C171.152 56.4137 170.29 55.5834 170.29 54.0342C170.29 52.4789 171.189 51.6423 172.313 51.6423C173.437 51.6423 174.298 52.4417 174.298 53.997C174.298 55.5524 173.399 56.4137 172.275 56.4137ZM172.294 52.2124C171.495 52.2124 170.958 52.8135 170.958 54.0156C170.958 55.2178 171.495 55.8498 172.294 55.8498C173.093 55.8498 173.636 55.224 173.636 54.0156C173.636 52.8135 173.093 52.2124 172.294 52.2124Z" fill="#9D9FA2"/>
<path d="M180.984 56.4137C180.404 56.4137 180.01 56.172 179.686 55.8002V57.6344L179.024 58V51.7415H179.686V52.2992C180.01 51.9522 180.454 51.6423 181.072 51.6423C181.996 51.6423 182.726 52.3426 182.726 53.9537C182.726 55.5772 181.952 56.4137 180.984 56.4137ZM180.903 52.2124C180.41 52.2124 180.004 52.4727 179.679 52.8755V55.162C179.935 55.5462 180.385 55.8498 180.928 55.8498C181.69 55.8498 182.071 55.193 182.071 53.9661C182.071 52.8135 181.634 52.2124 180.903 52.2124Z" fill="#9D9FA2"/>
<path d="M190.936 54.2511H187.858C187.92 55.2302 188.382 55.8498 189.138 55.8498C189.674 55.8498 189.993 55.6949 190.411 55.4161L190.717 55.887C190.161 56.234 189.762 56.4199 189.063 56.4199C188.22 56.4199 187.19 55.8064 187.19 54.0094C187.19 52.5532 187.995 51.6423 189.094 51.6423C190.299 51.6423 190.948 52.5842 190.948 53.8917C190.961 54.0528 190.954 54.1458 190.936 54.2511ZM189.1 52.2124C188.413 52.2124 187.939 52.7019 187.864 53.7244H190.349C190.293 52.8321 189.912 52.2124 189.1 52.2124Z" fill="#9D9FA2"/>
<path d="M0 43.6797H80.4097" stroke="#9D9FA2" stroke-width="0.3638" stroke-miterlimit="10"/>
<path d="M117.662 43.6797H195.793" stroke="#9D9FA2" stroke-width="0.3638" stroke-miterlimit="10"/>
<path d="M87.6703 46.146C88.1573 46.177 89.999 46.4496 92.5461 45.5449C92.9332 45.4086 93.3202 45.2723 93.7073 45.1422C96.3169 44.2622 98.889 43.2646 101.53 42.4714C103.652 41.8332 105.819 41.4304 108.047 41.542C109.452 41.6163 110.813 41.8766 112.018 42.6635C112.205 42.7875 112.355 42.9548 112.524 43.0973C112.536 43.1655 112.517 43.2026 112.443 43.1717C111.431 42.3041 110.214 42.0563 108.934 42.0191C106.755 41.9571 104.639 42.3165 102.566 42.9734C99.8192 43.8409 97.116 44.8199 94.3566 45.6627C92.8957 46.1088 91.4161 46.493 89.8803 46.5364C89.1249 46.555 88.3883 46.4311 87.6641 46.2142C87.6453 46.1956 87.6391 46.1832 87.6453 46.1708C87.6578 46.1522 87.6641 46.146 87.6703 46.146Z" fill="#9D9FA2"/>
<path d="M91.2413 47.6889C92.9019 48.1413 94.5376 47.6269 96.1108 47.156C98.0586 46.5735 99.919 45.7432 101.836 45.0554C103.546 44.4419 105.282 43.909 107.098 43.7417C108.203 43.6425 109.284 43.8036 110.27 44.3613C110.276 44.4357 110.257 44.4791 110.17 44.4481C108.191 43.7727 106.312 44.256 104.445 44.919C101.861 45.8361 99.2885 46.7904 96.6852 47.6579C94.9996 48.2218 93.2515 48.4201 91.516 47.85C91.3786 47.8004 91.1664 47.6517 91.2413 47.6889Z" fill="#9D9FA2"/>
<path d="M89.8054 46.5364C88.1948 46.5364 86.5653 46.1026 85.8287 44.5782C85.3979 43.6921 85.2918 42.8804 85.5103 42.174C85.6851 41.6163 86.0659 41.1391 86.5841 40.8293C87.1896 40.4637 87.8576 40.4079 88.0699 40.693L88.0075 40.7363C87.8389 40.5071 87.2396 40.5195 86.6215 40.8913C85.1919 41.7464 85.3042 43.3451 85.8911 44.5472C87.3145 47.4844 92.1216 46.2947 93.5575 45.8547L93.5825 45.9291C92.8707 46.1398 91.3475 46.5364 89.8054 46.5364Z" fill="#9D9FA2"/>
<path d="M92.0966 47.9864C90.6669 47.7571 89.4121 46.6851 89.0437 45.3714C88.7253 44.2188 89.1436 43.0849 90.2299 42.1864C90.9791 41.5667 91.7657 41.2879 92.571 41.3622C93.9257 41.4862 94.8559 42.5953 94.8622 42.6077L94.806 42.6573C94.7998 42.6449 93.882 41.5605 92.5648 41.4428C91.7844 41.3684 91.0165 41.6411 90.2798 42.2483C89.2185 43.1282 88.8065 44.2312 89.1186 45.3528C89.4745 46.6417 90.7044 47.6951 92.109 47.9182L92.0966 47.9864Z" fill="#9D9FA2"/>
<path d="M109.589 48.5627C107.692 48.5627 106.462 47.1437 106.443 47.1251L106.499 47.0755C106.518 47.1003 108.459 49.3372 111.225 48.1289C112.811 47.4349 113.285 46.4868 113.404 45.8114C113.56 44.9253 113.217 43.9214 112.436 43.1716L112.517 43.0973C113.317 43.8595 113.641 44.9129 113.479 45.8238C113.354 46.5178 112.867 47.4907 111.256 48.1971C110.663 48.4573 110.101 48.5627 109.589 48.5627Z" fill="#9D9FA2"/>
</svg>
